<svg width="20" height="28" viewBox="0 0 20 28" fill="none" xmlns="http://www.w3.org/2000/svg">
<path d="M14.5 9.73852L5.5 3.39624" stroke="#FFF8F8" stroke-width="2" stroke-linecap="round" stroke-linejoin="round"/>
<path d="M19 18.804V9.02786C18.9996 8.59926 18.9071 8.17832 18.7315 7.80726C18.556 7.43619 18.3037 7.12806 18 6.91376L11 2.02568C10.696 1.81117 10.3511 1.69824 10 1.69824C9.64893 1.69824 9.30404 1.81117 9 2.02568L2 6.91376C1.69626 7.12806 1.44398 7.43619 1.26846 7.80726C1.09294 8.17832 1.00036 8.59926 1 9.02786V18.804C1.00036 19.2326 1.09294 19.6536 1.26846 20.0246C1.44398 20.3957 1.69626 20.7038 2 20.9181L9 25.8062C9.30404 26.0207 9.64893 26.1336 10 26.1336C10.3511 26.1336 10.696 26.0207 11 25.8062L18 20.9181C18.3037 20.7038 18.556 20.3957 18.7315 20.0246C18.9071 19.6536 18.9996 19.2326 19 18.804Z" stroke="#FFF8F8" stroke-width="2" stroke-linecap="round" stroke-linejoin="round"/>
<path d="M1 7.75684L9.73 13.928L18.46 7.75684" stroke="#FFF8F8" stroke-width="2" stroke-linecap="round" stroke-linejoin="round"/>
<path d="M10 26.2337V13.9158" stroke="#FFF8F8" stroke-width="2" stroke-linecap="round" stroke-linejoin="round"/>
</svg>
